<svg xmlns="http://www.w3.org/2000/svg" viewBox="0 0 1200 630" fill="none" role="img" aria-label="Banner de Android 17 Beta 3 — estabilidad de plataforma alcanzada.">
  <defs>
    <linearGradient id="bg-android-17-beta-3-es" x1="0" y1="0" x2="1200" y2="630" gradientUnits="userSpaceOnUse">
      <stop offset="0%" stop-color="#0F172A"/>
      <stop offset="100%" stop-color="#0B2B22"/>
    </linearGradient>
    <radialGradient id="glow-android-17-beta-3-es" cx="50%" cy="50%" r="50%">
      <stop offset="0%" stop-color="#00875A" stop-opacity="0.22000000000000003"/>
      <stop offset="100%" stop-color="#00875A" stop-opacity="0"/>
    </radialGradient>
    <filter id="lift-android-17-beta-3-es" x="-30%" y="-30%" width="160%" height="160%">
      <feDropShadow dx="0" dy="10" stdDeviation="18" flood-color="#00875A" flood-opacity="0.275"/>
    </filter>
  </defs>
  <rect width="1200" height="630" fill="url(#bg-android-17-beta-3-es)"/>
  <ellipse cx="960" cy="300" rx="360" ry="270" fill="url(#glow-android-17-beta-3-es)"/>
<g filter="url(#lift-android-17-beta-3-es)">
    <rect x="700" y="150" width="368" height="286" rx="16" fill="none" stroke="#94A3B8" stroke-width="2.5" opacity="0.4"/>
    <rect x="726" y="184" width="196" height="10" rx="5" fill="#94A3B8" opacity="0.26"/><rect x="726" y="224" width="196" height="10" rx="5" fill="#94A3B8" opacity="0.26"/><rect x="726" y="264" width="196" height="10" rx="5" fill="#94A3B8" opacity="0.26"/><rect x="726" y="304" width="128" height="10" rx="5" fill="#94A3B8" opacity="0.26"/>
    <g transform="translate(856 300) scale(4.333333333333333)" opacity="0.6" fill="none" stroke="#00875A" stroke-width="0.39" stroke-linecap="round" stroke-linejoin="round"><path fill="currentColor" d="M18.44 5.559q-1.015 1.748-2.028 3.498q-.055-.023-.111-.043a12.1 12.1 0 0 0-8.68.033C7.537 8.897 5.868 6.026 5.6 5.56a1 1 0 0 0-.141-.19a1.104 1.104 0 0 0-1.768 1.298c1.947 3.37-.096-.216 1.948 3.36c.017.03-.495.263-1.393 1.017C2.9 12.176.452 14.772 0 18.99h24a11.7 11.7 0 0 0-.746-3.068a12.1 12.1 0 0 0-2.74-4.184a12 12 0 0 0-2.131-1.687c.66-1.122 1.312-2.256 1.965-3.385a1.11 1.11 0 0 0-.008-1.12a1.1 1.1 0 0 0-.852-.532c-.522-.054-.939.313-1.049.545m-.04 8.46c.395.593.324 1.331-.156 1.65c-.48.32-1.188.1-1.582-.493s-.324-1.33.156-1.65c.473-.316 1.182-.11 1.582.494m-11.193-.492c.48.32.55 1.058.156 1.65c-.394.593-1.103.815-1.584.495c-.48-.32-.55-1.058-.156-1.65c.4-.603 1.109-.811 1.584-.495"/></g>
    <circle cx="1068" cy="288" r="52" fill="#00875A" opacity="0.16"/>
    <circle cx="1068" cy="288" r="52" fill="none" stroke="#00875A" stroke-width="3"/>
    <g transform="translate(1042 262) scale(2.1666666666666665)" opacity="0.95" fill="none" stroke="#00875A" stroke-width="0.78" stroke-linecap="round" stroke-linejoin="round"><path fill="none" stroke="currentColor" stroke-linecap="round" stroke-linejoin="round" stroke-width="1.7" d="M20 13c0 5-3.5 7.5-7.66 8.95a1 1 0 0 1-.67-.01C7.5 20.5 4 18 4 13V6a1 1 0 0 1 1-1c2 0 4.5-1.2 6.24-2.72a1.17 1.17 0 0 1 1.52 0C14.51 3.81 17 5 19 5a1 1 0 0 1 1 1z"/></g>
    <rect x="726" y="396" width="150" height="10" rx="5" fill="#00875A" opacity="0.5"/></g>
  <rect x="96" y="150" width="76" height="4" rx="2" fill="#00875A"/>
  <text x="96" y="205" font-family="'IBM Plex Mono',ui-monospace,monospace" font-size="26" letter-spacing="4" fill="#00875A">ANDROID 17 · BETA 3</text>
  <text x="96" y="300" font-family="Switzer,'Helvetica Neue',Arial,sans-serif" font-size="72" font-weight="500" letter-spacing="-2" fill="#F8FAFC">Estabilidad de</text>
  <text x="96" y="384" font-family="Switzer,'Helvetica Neue',Arial,sans-serif" font-size="72" font-weight="500" letter-spacing="-2" fill="#94A3B8">plataforma</text>
  <text x="96" y="470" font-family="'IBM Plex Mono',ui-monospace,monospace" font-size="24" fill="#64748B">API 37 bloqueada · 27 mar 2026</text>
</svg>
